<?xml version="1.0" encoding="UTF-8" standalone="no" ?>
<!DOCTYPE svg PUBLIC "-//W3C//DTD SVG 1.1//EN" "http://www.w3.org/Graphics/SVG/1.1/DTD/svg11.dtd">
<svg xmlns="http://www.w3.org/2000/svg" xmlns:xlink="http://www.w3.org/1999/xlink" version="1.1" width="1080" height="1080" viewBox="0 0 1080 1080" xml:space="preserve">
<desc>Created with Fabric.js 5.2.4</desc>
<defs>
</defs>
<g transform="matrix(1 0 0 1 540 540)" id="cefc72e0-33b0-4efb-96af-d6d0374e388b"  >
<rect style="stroke: none; stroke-width: 1; stroke-dasharray: none; stroke-linecap: butt; stroke-dashoffset: 0; stroke-linejoin: miter; stroke-miterlimit: 4; fill: rgb(255,255,255); fill-rule: nonzero; opacity: 1; visibility: hidden;" vector-effect="non-scaling-stroke"  x="-540" y="-540" rx="0" ry="0" width="1080" height="1080" />
</g>
<g transform="matrix(1 0 0 1 540 540)" id="3cbcea95-3080-4f0d-8934-7a6751361808"  >
</g>
<g transform="matrix(62.14 0 0 62.14 540.53 540.53)"  >
<g style="" vector-effect="non-scaling-stroke"   >
		<g transform="matrix(1 0 0 1 0 0)"  >
<path style="stroke: none; stroke-width: 1; stroke-dasharray: none; stroke-linecap: butt; stroke-dashoffset: 0; stroke-linejoin: miter; stroke-miterlimit: 4; fill: rgb(255,255,255); fill-rule: nonzero; opacity: 1;" vector-effect="non-scaling-stroke"  transform=" translate(-8, -8)" d="M 8 4.754 C 6.840315882787907 4.753999981444708 5.7687235599974045 5.372684082228634 5.188881496034906 6.376999985007089 C 4.609039432072409 7.381315887785544 4.609039432072409 8.618684112214456 5.188881496034907 9.623000014992911 C 5.7687235599974045 10.627315917771366 6.840315882787907 11.24600001855529 8 11.245999999999999 C 9.792716297950756 11.245999999999999 11.246 9.792716297950754 11.246 7.999999999999998 C 11.246 6.207283702049243 9.792716297950756 4.753999999999999 8 4.753999999999999 z M 5.754 8 C 5.753999983578146 7.197581474118363 6.18208516158715 6.456116172477056 6.876999986730933 6.054906904795656 C 7.571914811874716 5.6536976371142575 8.42808518812528 5.653697637114257 9.123000013269063 6.054906904795656 C 9.817914838412847 6.4561161724770555 10.246000016421853 7.197581474118361 10.245999999999999 7.999999999999998 C 10.245999999999999 9.240431548119963 9.240431548119961 10.246 7.999999999999998 10.246 C 6.759568451880036 10.246 5.753999999999999 9.240431548119963 5.753999999999999 8 z" stroke-linecap="round" />
</g>
		<g transform="matrix(1 0 0 1 0 0)"  >
<path style="stroke: none; stroke-width: 1; stroke-dasharray: none; stroke-linecap: butt; stroke-dashoffset: 0; stroke-linejoin: miter; stroke-miterlimit: 4; fill: rgb(255,255,255); fill-rule: nonzero; opacity: 1;" vector-effect="non-scaling-stroke"  transform=" translate(-8, -8)" d="M 9.796 1.343 C 9.269 -0.44700000000000006 6.731 -0.44700000000000006 6.203999999999999 1.343 L 6.1099999999999985 1.662 C 6.035459300502069 1.9150737037069598 5.850471158181668 2.1208646116552354 5.606741541508611 2.221852181910208 C 5.363011924835552 2.32283975216518 5.086686174274656 2.3081908556099515 4.854999999999999 2.1819999999999995 L 4.562999999999999 2.022 C 2.922999999999999 1.13 1.129999999999999 2.924 2.022999999999999 4.563 L 2.1819999999999986 4.8549999999999995 C 2.3081908556099506 5.086686174274657 2.322839752165179 5.363011924835553 2.221852181910207 5.606741541508611 C 2.1208646116552345 5.850471158181669 1.9150737037069594 6.03545930050207 1.6619999999999995 6.109999999999999 L 1.3429999999999986 6.204 C -0.4470000000000014 6.731 -0.4470000000000014 9.269 1.3429999999999986 9.796 L 1.6619999999999986 9.889999999999999 C 1.9150737037069587 9.964540699497928 2.1208646116552345 10.149528841818329 2.221852181910207 10.393258458491387 C 2.322839752165179 10.636988075164446 2.3081908556099506 10.913313825725343 2.1819999999999986 11.145 L 2.0219999999999985 11.437 C 1.1299999999999986 13.077 2.9229999999999983 14.870999999999999 4.562999999999999 13.977 L 4.854999999999999 13.818 C 5.086686174274656 13.691809144390048 5.363011924835552 13.67716024783482 5.60674154150861 13.778147818089792 C 5.850471158181668 13.879135388344764 6.035459300502069 14.08492629629304 6.1099999999999985 14.338 L 6.203999999999999 14.657 C 6.730999999999999 16.447 9.268999999999998 16.447 9.796 14.657 L 9.889999999999999 14.338 C 9.964540699497928 14.08492629629304 10.149528841818329 13.879135388344764 10.393258458491387 13.77814781808979 C 10.636988075164446 13.677160247834818 10.913313825725341 13.691809144390048 11.145 13.818 L 11.437 13.978 C 13.077 14.871 14.870999999999999 13.076 13.977 11.437 L 13.818 11.145 C 13.691809144390048 10.913313825725343 13.67716024783482 10.636988075164446 13.778147818089792 10.393258458491388 C 13.879135388344764 10.14952884181833 14.08492629629304 9.96454069949793 14.338 9.89 L 14.657 9.796000000000001 C 16.447 9.269000000000002 16.447 6.731000000000002 14.657 6.204000000000001 L 14.338 6.11 C 14.08492629629304 6.035459300502071 13.879135388344764 5.85047115818167 13.778147818089792 5.606741541508613 C 13.67716024783482 5.363011924835554 13.691809144390048 5.086686174274659 13.818 4.855 L 13.978 4.563000000000001 C 14.871 2.923000000000001 13.076 1.1300000000000008 11.437 2.0230000000000006 L 11.145 2.1820000000000004 C 10.913313825725343 2.308190855609952 10.636988075164446 2.32283975216518 10.393258458491388 2.221852181910208 C 10.14952884181833 2.120864611655236 9.96454069949793 1.9150737037069603 9.89 1.6620000000000006 L 9.796000000000001 1.3430000000000004 z M 7.162999999999999 1.626 C 7.408999999999999 0.7909999999999999 8.591 0.7909999999999999 8.837 1.626 L 8.931 1.9449999999999998 C 9.091044661806361 2.487971289745313 9.488065219776338 2.9294344344261867 10.011075908039633 3.1459798920621216 C 10.534086596302927 3.362525349698057 11.126974575922436 3.330920362986836 11.623999999999999 3.0599999999999996 L 11.915 2.8999999999999995 C 12.678999999999998 2.4849999999999994 13.514999999999999 3.3199999999999994 13.098999999999998 4.084999999999999 L 12.939999999999998 4.376999999999999 C 12.669488943654148 4.874076497557791 12.638227000993083 5.466810105161927 12.854949117917094 5.9895842438352584 C 13.071671234841107 6.512358382508591 13.51313854110722 6.909116565966096 14.055999999999997 7.068999999999999 L 14.373999999999997 7.162999999999999 C 15.208999999999996 7.408999999999999 15.208999999999996 8.591 14.373999999999997 8.837 L 14.054999999999996 8.931 C 13.512028710254683 9.091044661806361 13.070565565573808 9.488065219776338 12.854020107937874 10.011075908039633 C 12.63747465030194 10.534086596302927 12.669079637013159 11.126974575922436 12.939999999999996 11.623999999999999 L 13.099999999999996 11.915 C 13.514999999999995 12.678999999999998 12.679999999999996 13.514999999999999 11.914999999999996 13.098999999999998 L 11.623999999999995 12.939999999999998 C 11.126839026789419 12.669105248265614 10.533821877325968 12.637633501525507 10.010781217685198 12.854385590704526 C 9.487740558044429 13.071137679883545 9.09081437123358 13.51284959122897 8.930999999999996 14.056 L 8.836999999999996 14.373999999999997 C 8.590999999999996 15.208999999999996 7.408999999999996 15.208999999999996 7.162999999999997 14.373999999999997 L 7.068999999999996 14.054999999999996 C 6.908886404033441 13.512317672383983 6.512033896165928 13.071099059355355 5.989289693898497 12.854583537242359 C 5.4665454916310665 12.638068015129363 4.873940970939924 12.66946323037088 4.376999999999996 12.939999999999996 L 4.084999999999996 13.099999999999996 C 3.320999999999996 13.514999999999995 2.4849999999999963 12.679999999999996 2.9009999999999962 11.914999999999996 L 3.059999999999996 11.623999999999995 C 3.331304255455578 11.126890290992344 3.363119227174993 10.533718724523139 3.1465437990372447 10.010441412053996 C 2.9299683708994966 9.487164099584852 2.488260444840517 9.089975469649763 1.9450000000000003 8.93 L 1.6260000000000001 8.836 C 0.7910000000000001 8.59 0.7910000000000001 7.408 1.6260000000000001 7.162000000000001 L 1.945 7.0680000000000005 C 2.4873935582464024 6.907817727417636 2.928367888927705 6.5111332478109825 3.1448535104307993 5.988655393582438 C 3.361339131933893 5.466177539353895 3.3301534749825334 4.873856349895728 3.0600000000000005 4.377000000000001 L 2.9 4.085 C 2.485 3.3209999999999997 3.32 2.485 4.085 2.901 L 4.377 3.0599999999999996 C 4.873940970939928 3.330536769629116 5.46654549163107 3.3619319848706324 5.989289693898501 3.1454164627576366 C 6.512033896165931 2.928900940644641 6.908886404033445 2.487682327616014 7.069 1.9449999999999998 L 7.163 1.6259999999999997 z" stroke-linecap="round" />
</g>
</g>
</g>
</svg>